<?xml version="1.0" encoding="UTF-8" standalone="no"?>
<svg
   width="1200"
   height="1200"
   viewBox="0 0 1200 1200"
   class="icon"
   version="1.1"
   id="svg2"
   xmlns="http://www.w3.org/2000/svg"
   xmlns:svg="http://www.w3.org/2000/svg">
  <path
     d="m 1068.3365,572.8125 c -9.1,0 -18.3,-2.9 -26,-8.9 l -416.40005,-321.7 c -15.3,-11.8 -36.7,-11.8 -52,0 l -416.3,321.7 c -18.6,14.4 -45.4,10.9 -59.699997,-7.7 -14.4,-18.6 -11,-45.4 7.699997,-59.7 l 416.3,-321.7 c 46,-35.5 110.2,-35.5 156.1,0 l 416.40005,321.7 c 18.6,14.4 22,41.1 7.7,59.7 -8.5,10.9 -21.1,16.6 -33.8,16.6 z"
     fill="#5f6379" />
  <path
     d="m 897.33645,1051.8125 h -594.7 c -70.8,0 -128.4,-57.6 -128.4,-128.4 v -318.7 c 0,-23.5 19.1,-42.6 42.6,-42.6 23.5,0 42.6,19.1 42.6,42.6 v 318.7 c 0,23.8 19.4,43.2 43.2,43.2 h 594.8 c 23.8,0 43.2,-19.4 43.2,-43.2 v -318.7 c 0,-23.5 19.1,-42.6 42.6,-42.6 23.50005,0 42.60005,19.1 42.60005,42.6 v 318.7 c -0.1,70.8 -57.70005,128.4 -128.50005,128.4 z"
     fill="#3688ff" />
  <path
     d="M 845.25107,610.87303 621.68388,387.35493 c -12.85658,-12.85658 -33.7608,-12.85658 -46.61739,0 l -46.42109,46.42111 58.88512,58.88511 c 13.69079,-4.61266 29.39349,-1.52119 40.28723,9.37254 10.94283,10.9919 14.03429,26.79274 9.32348,40.5326 l 56.77507,56.77507 c 13.73986,-4.71081 29.58977,-1.66841 40.53259,9.32349 15.31013,15.31012 15.31013,40.14001 0,55.49921 -15.31013,15.31013 -40.14003,15.31013 -55.49922,0 -11.53167,-11.53168 -14.37779,-28.46115 -8.53835,-42.69172 l -52.94754,-52.94753 v 139.26332 c 3.7294,1.86469 7.26251,4.31823 10.35397,7.40971 15.31013,15.31014 15.31013,40.14003 0,55.49923 -15.31013,15.31012 -40.18909,15.31012 -55.49923,0 -15.31012,-15.3592 -15.31012,-40.18909 0,-55.49923 3.77847,-3.77846 8.14579,-6.62457 12.85659,-8.53834 V 566.07128 c -4.66173,-1.91378 -9.07812,-4.75989 -12.85659,-8.53835 -11.62981,-11.58074 -14.42685,-28.65742 -8.44019,-42.88799 L 505.82741,456.59402 352.57889,609.84255 c -12.85659,12.90566 -12.85659,33.7608 0,46.61739 l 223.56717,223.5181 c 12.85658,12.85658 33.7608,12.85658 46.61738,0 l 222.5367,-222.48762 c 12.85658,-12.80751 12.85658,-33.71172 -0.0491,-46.61739"
     style="fill:#f05133;stroke-width:0.49071" />
</svg>
